<svg width="112" height="31" viewBox="0 0 112 31" fill="none" xmlns="http://www.w3.org/2000/svg">
<path d="M54.7133 15.6274C54.3898 14.4246 53.5105 13.7303 52.1221 13.7303C49.9472 13.7303 47.8652 16.0902 47.8652 20.3465V28.536C47.8652 30.0631 48.328 30.5252 49.3922 30.5252H49.485V30.7567H41.4805V30.5252H41.5269C42.5911 30.5252 43.0997 30.0624 43.0997 28.536V12.2961C43.0997 10.7691 42.5905 10.3063 41.5269 10.3063H41.4805V10.0749H47.8652V15.1272C47.8652 15.2999 48.1121 15.3302 48.154 15.162C49.1563 11.1236 51.6844 10.0233 54.2505 9.98203L54.7133 15.6267V15.6274Z" fill="#230F09"/>
<path d="M93.8007 9.81471V10.0461H93.7543C92.6907 10.0461 92.4587 10.5089 91.8573 12.036L84.5005 30.7286L77.1438 12.036C77.0065 11.6866 76.8879 11.3933 76.7751 11.1484L76.2207 9.81471H81.4748L83.5839 15.3543L86.9526 23.9268L91.6259 12.0353C91.7645 11.6653 91.8573 11.3418 91.8573 11.1097C91.8573 10.3233 91.2095 10.0455 90.4231 10.0455H90.3766V9.81406H93.8007V9.81471Z" fill="#230F09"/>
<path d="M26.1329 30.7488L26.0891 30.5992C26.0762 30.5457 26.0633 30.4896 26.0453 30.4349C25.7861 29.6452 25.5225 28.8575 25.2653 28.0673C24.925 27.023 24.5801 25.9801 24.2533 24.9313C23.9974 24.1114 23.7666 23.2837 23.5243 22.4599C23.0614 20.8826 22.598 19.3053 22.1364 17.7273C21.7684 16.4684 21.4029 15.2089 21.0348 13.9506C20.7055 12.8252 20.3728 11.6997 20.0422 10.5749C19.6541 9.25477 19.2661 7.934 18.8787 6.61387C18.5615 5.53289 18.2444 4.45126 17.9285 3.37027C17.6411 2.38662 17.4651 1.73558 17.1769 0.751932C17.1769 0.750642 17.0661 0.415454 17.0654 0.414164C17.0326 0.305873 16.9268 0.233033 16.8134 0.236256C16.8134 0.236256 16.8121 0.236256 16.8115 0.236256C15.9625 0.231099 15.704 0.289113 15.1568 0.388381C14.3981 0.525679 13.6671 0.748709 12.9613 1.05876C11.9448 1.50482 11.0327 2.10816 10.2095 2.85073C8.95385 3.98264 8.04691 5.3466 7.52092 6.95228C7.22183 7.86503 6.9627 8.79067 6.69133 9.71179C6.24978 11.2092 5.81726 12.7085 5.37184 14.2046C4.9058 15.771 4.47134 17.347 3.97565 18.905C3.69268 19.7926 3.4574 20.6944 3.19247 21.5878C2.47117 24.0218 1.74987 26.4551 1.01825 28.8859C0.851948 29.4377 0.715939 29.9965 0.567037 30.5528L0.5 30.7494H5.16171L5.25324 30.4555C5.36733 30.09 5.47885 29.7303 5.59294 29.3713C6.24656 27.3124 6.86021 25.2407 7.53897 23.1896C7.84451 22.2659 8.11395 21.33 8.38983 20.3966C8.58966 19.7217 8.79077 19.0474 8.96803 18.3661C9.008 18.2127 9.0615 18.0644 9.11113 17.9091C9.1801 17.9039 9.23425 17.8962 9.28904 17.8962C9.94524 17.8962 10.6021 17.8923 11.2583 17.8975C12.0299 17.9039 12.7853 18.0232 13.5234 18.2488C14.5347 18.5569 15.4488 19.0513 16.281 19.6978C17.5527 20.6854 18.4893 21.921 19.0237 23.4474C19.152 23.8129 19.257 24.1868 19.3686 24.5581C19.725 25.7428 20.0808 26.9276 20.4341 28.113C20.6687 28.9007 20.8988 29.6897 21.1322 30.4774C21.1554 30.5554 21.185 30.6314 21.2134 30.714C21.2134 30.714 21.2147 30.714 21.2153 30.714L21.2282 30.7494H26.1316L26.1329 30.7488ZM20.0222 19.6147C18.8761 18.7838 17.6333 18.1457 16.2764 17.7293C15.0646 17.358 14.1718 17.1659 12.5597 17.1801C11.589 17.1813 10.6182 17.1801 9.64744 17.1801C9.54688 17.1801 9.44632 17.1755 9.30774 17.1723C9.33094 17.0859 9.3419 17.0428 9.35415 17.0002C9.86144 15.2624 10.3687 13.5239 10.8767 11.7861C11.3382 10.2081 11.7997 8.63016 12.2626 7.0522C12.5926 5.92673 12.9239 4.80127 13.2559 3.67581C13.3635 3.30968 13.5285 2.97191 13.7413 2.65413C13.8805 2.44592 14.0565 2.30089 14.2872 2.20549C14.8364 1.97859 15.3805 1.95539 15.9226 2.22032C16.1321 2.32281 16.319 2.45882 16.4821 2.62383C16.9713 3.11953 17.3233 3.69902 17.5212 4.36682C17.9066 5.6689 18.285 6.97291 18.6666 8.27628C19.0927 9.72984 19.5213 11.1828 19.9468 12.6363C20.2658 13.727 20.5804 14.8183 20.8982 15.9089C21.3662 17.514 21.8361 19.1184 22.306 20.7227C22.4413 21.1836 22.5806 21.6432 22.7172 22.1041C22.7327 22.155 22.743 22.2073 22.7682 22.3085C22.7063 22.2537 22.6773 22.2356 22.6586 22.2105C21.9089 21.2133 21.0303 20.3463 20.0209 19.614L20.0222 19.6147Z" fill="#230F09"/>
<path d="M38.7508 25.6286C38.1494 29.0527 35.9745 30.7641 33.3375 30.7641C30.7004 30.7641 28.8956 29.6998 28.8956 25.6286V10.4684H25.5186V9.99009H28.9059V2.52891H33.6733V9.99009H38.52V10.4684H33.6617V24.7958C33.6617 28.312 34.4945 29.1913 35.7902 29.1913C37.0858 29.1913 38.1958 27.6178 38.5664 25.5364L38.7514 25.6286H38.7508Z" fill="#230F09"/>
<path d="M111.488 21.7684H111.499C111.436 22.306 111.334 22.8346 111.191 23.3561C110.662 25.2679 109.686 26.9052 108.265 28.2679C106.843 29.6306 105.133 30.4466 103.134 30.7148C101.246 30.8882 99.512 30.5272 97.9321 29.6306C96.3522 28.7339 95.1004 27.4763 94.176 25.8565C93.3387 24.3475 92.8668 22.7398 92.7598 21.0336C92.6535 19.3274 92.9236 17.6766 93.5714 16.0805C94.2192 14.5168 95.1771 13.1857 96.445 12.0873C97.7129 10.9895 99.1922 10.3024 100.882 10.0252C102.826 9.77254 104.636 10.1019 106.315 11.0147C107.994 11.9268 109.299 13.2405 110.231 14.9544V14.966C110.246 14.9822 110.259 14.9976 110.266 15.0137C110.306 15.0846 110.343 15.1543 110.379 15.2213C110.415 15.2883 110.44 15.338 110.456 15.3696C107.486 16.9256 104.519 18.4784 101.557 20.0261C100.372 20.6501 99.1832 21.274 97.9907 21.898C98.4568 22.8301 99.0021 23.7113 99.6261 24.5402C100.597 25.8913 101.787 27.009 103.193 27.8934C103.785 28.2647 104.435 28.5354 105.142 28.7049C105.849 28.8751 106.542 28.8255 107.221 28.5567C107.506 28.3356 107.782 28.0945 108.051 27.8341C108.904 26.6809 109.176 25.0417 108.868 22.9165C109.919 22.9326 110.792 22.549 111.487 21.7672L111.488 21.7684ZM105.931 15.3934C105.788 15.1962 105.643 15.0021 105.493 14.8126C105.168 14.4098 104.821 14.0269 104.45 13.6633C103.802 13.0155 103.087 12.4547 102.305 11.9809C101.767 11.6651 101.187 11.4259 100.563 11.2641C99.9393 11.1023 99.3192 11.1004 98.703 11.2583C98.1422 11.4401 97.6858 11.7463 97.3345 12.1769C96.9832 12.6075 96.728 13.0954 96.57 13.6401C96.2226 14.9435 96.1929 16.2784 96.4811 17.645C96.7692 19.0115 97.2017 20.2872 97.7786 21.4726C98.7739 20.9511 99.7692 20.4258 100.764 19.8965C102.771 18.8143 104.797 17.7597 106.843 16.7329C106.787 16.6226 106.72 16.504 106.641 16.3777H106.63C106.622 16.3622 106.613 16.3461 106.606 16.33C106.543 16.2275 106.479 16.1328 106.416 16.0457C106.242 15.8324 106.08 15.6151 105.93 15.3941L105.931 15.3934Z" fill="#230F09"/>
<path d="M66.705 9.82146C68.9044 9.94973 70.8562 10.7091 72.5599 12.1007C74.2236 13.5324 75.3194 15.2902 75.8473 17.3735C76.3752 19.4569 76.2831 21.5305 75.5714 23.5939C75.3877 24.1057 75.1679 24.6014 74.9114 25.0816C73.8478 27.0489 72.324 28.5566 70.3405 29.6047C68.4371 30.5645 66.4298 30.9203 64.3181 30.6721C63.4543 30.56 62.619 30.3363 61.8106 30.0005C61.2266 29.753 60.671 29.4564 60.1431 29.1129C59.6151 28.7609 59.1233 28.3613 58.6676 27.9133C57.1638 26.4017 56.2162 24.5981 55.8243 22.5026C55.4562 20.2948 55.7186 18.1876 56.61 16.1804C57.5022 14.1731 58.8913 12.5694 60.7793 11.3698C62.6028 10.2585 64.5785 9.74217 66.7057 9.8221L66.705 9.82146ZM70.6519 11.4052V11.393C69.8519 11.0249 68.9263 11.0713 67.8743 11.5309C66.823 11.9912 65.7568 12.7847 64.6771 13.9121C63.5974 15.0394 62.6138 16.4234 61.7262 18.0632C60.8863 19.6547 60.2965 21.1947 59.9568 22.6818C59.6171 24.1695 59.5307 25.4774 59.6989 26.6048C59.8672 27.7321 60.2991 28.5521 60.9946 29.0639C61.1789 29.1677 61.3665 29.2676 61.5586 29.3636C62.3747 29.6356 63.2945 29.5235 64.3181 29.0278C65.3417 28.5321 66.3718 27.7302 67.4076 26.6222C68.4435 25.5147 69.3853 24.1727 70.2329 22.5973C71.0967 20.9658 71.6968 19.3924 72.0326 17.8763C72.3684 16.3609 72.4387 15.0369 72.2427 13.9056C72.0468 12.7737 71.5807 11.9725 70.8453 11.5H70.833C70.7769 11.4684 70.717 11.4362 70.6532 11.4039L70.6519 11.4052Z" fill="#230F09"/>
<path d="M73.5212 6.24766H58.3242V7.19392H73.5212V6.24766Z" fill="#230F09"/>
</svg>
