<svg width="1000" height="275" viewBox="0 0 1000 275" fill="none" xmlns="http://www.w3.org/2000/svg">
<path d="M488.089 138.571C485.176 127.742 477.26 121.492 464.76 121.492C445.179 121.492 426.434 142.738 426.434 181.057V254.789C426.434 268.537 430.601 272.698 440.183 272.698H441.018V274.782H368.952V272.698H369.37C378.951 272.698 383.53 268.531 383.53 254.789V108.579C383.53 94.831 378.946 90.6642 369.37 90.6642H368.952V88.5808H426.434V134.068C426.434 135.623 428.657 135.896 429.034 134.381C438.059 98.0229 460.819 88.1165 483.923 87.7451L488.089 138.565V138.571Z" fill="white"/>
<path d="M839.999 86.2387V88.3221H839.581C830.005 88.3221 827.916 92.4889 822.502 106.237L756.268 274.529L690.034 106.237C688.798 103.092 687.73 100.451 686.715 98.2459L681.724 86.2387H729.027L748.016 136.113L778.344 213.292L820.418 106.231C821.666 102.9 822.502 99.9869 822.502 97.8977C822.502 90.8176 816.669 88.3163 809.589 88.3163H809.171V86.2329H839.999V86.2387Z" fill="white"/>
<path d="M230.777 274.711L230.382 273.365C230.266 272.883 230.15 272.378 229.987 271.885C227.654 264.776 225.281 257.684 222.965 250.569C219.901 241.167 216.796 231.778 213.854 222.336C211.55 214.954 209.472 207.502 207.29 200.085C203.124 185.885 198.951 171.684 194.796 157.477C191.482 146.143 188.191 134.803 184.878 123.475C181.912 113.343 178.918 103.21 175.941 93.083C172.447 81.1977 168.953 69.3066 165.466 57.4213C162.61 47.6891 159.755 37.951 156.911 28.2188C154.323 19.3629 152.739 13.5015 150.145 4.64555C150.145 4.63394 149.146 1.61619 149.141 1.60459C148.845 0.629621 147.893 -0.0261608 146.872 0.00285602C146.872 0.00285602 146.86 0.00285602 146.854 0.00285602C139.211 -0.0435709 136.884 0.478732 131.957 1.37245C125.126 2.60857 118.545 4.61653 112.191 7.40795C103.039 11.4239 94.827 16.8558 87.4161 23.5413C76.1111 33.732 67.9458 46.0119 63.2102 60.4681C60.5175 68.6857 58.1845 77.0193 55.7413 85.3123C51.766 98.7935 47.8719 112.292 43.8618 125.762C39.666 139.864 35.7545 154.053 31.2917 168.08C28.7441 176.071 26.6258 184.19 24.2406 192.233C17.7467 214.147 11.2527 236.055 4.6659 257.939C3.16863 262.907 1.94412 267.938 0.603546 272.947L0 274.717H41.9699L42.794 272.07C43.8212 268.78 44.8252 265.542 45.8524 262.309C51.737 243.773 57.2618 225.121 63.3727 206.655C66.1235 198.339 68.5493 189.912 71.0332 181.509C72.8322 175.433 74.6429 169.362 76.2388 163.228C76.5986 161.847 77.0803 160.512 77.5271 159.114C78.1481 159.067 78.6356 158.998 79.1289 158.998C85.0367 158.998 90.9503 158.963 96.8581 159.009C103.805 159.067 110.606 160.141 117.251 162.172C126.357 164.946 134.586 169.397 142.078 175.218C153.528 184.109 161.96 195.234 166.771 208.976C167.926 212.267 168.872 215.633 169.876 218.975C173.085 229.642 176.289 240.309 179.469 250.981C181.581 258.073 183.653 265.176 185.754 272.268C185.963 272.97 186.23 273.655 186.485 274.397C186.485 274.397 186.497 274.397 186.503 274.397L186.619 274.717H230.765L230.777 274.711ZM175.761 174.469C165.442 166.989 154.253 161.244 142.037 157.495C131.127 154.152 123.089 152.422 108.575 152.55C99.8353 152.562 91.0954 152.55 82.3555 152.55C81.4502 152.55 80.5449 152.509 79.2972 152.48C79.5061 151.703 79.6047 151.314 79.715 150.931C84.2823 135.285 88.8495 119.633 93.4225 103.988C97.5778 89.7809 101.733 75.5743 105.9 61.3676C108.871 51.235 111.854 41.1023 114.843 30.9696C115.812 27.6733 117.298 24.6323 119.213 21.7713C120.466 19.8968 122.051 18.591 124.128 17.7321C129.073 15.6894 133.971 15.4804 138.851 17.8656C140.737 18.7883 142.42 20.0128 143.889 21.4985C148.293 25.9613 151.462 31.1785 153.244 37.1908C156.714 48.9136 160.121 60.6538 163.556 72.3882C167.392 85.4748 171.251 98.5556 175.082 111.642C177.954 121.461 180.786 131.287 183.647 141.106C187.861 155.556 192.091 170.001 196.322 184.445C197.541 188.595 198.794 192.733 200.025 196.882C200.164 197.34 200.257 197.811 200.483 198.722C199.926 198.228 199.665 198.066 199.496 197.84C192.747 188.862 184.837 181.056 175.749 174.464L175.761 174.469Z" fill="white"/>
<path d="M344.376 228.613C338.961 259.441 319.381 274.849 295.639 274.849C271.897 274.849 255.648 265.267 255.648 228.613V92.1241H225.244V87.818H255.741V20.644H298.663V87.818H342.298V92.1241H298.558V221.115C298.558 252.773 306.056 260.689 317.721 260.689C329.385 260.689 339.379 246.523 342.716 227.783L344.381 228.613H344.376Z" fill="white"/>
<path d="M999.239 193.86H999.343C998.774 198.7 997.852 203.459 996.569 208.153C991.804 225.366 983.018 240.107 970.222 252.375C957.42 264.643 942.023 271.99 924.027 274.405C907.029 275.966 891.418 272.716 877.194 264.643C862.97 256.571 851.7 245.249 843.378 230.665C835.839 217.079 831.591 202.605 830.628 187.244C829.67 171.882 832.102 157.02 837.934 142.651C843.766 128.572 852.39 116.588 863.805 106.699C875.221 96.8159 888.539 90.6296 903.756 88.1341C921.253 85.8592 937.555 88.8247 952.667 97.0423C967.779 105.254 979.53 117.081 987.922 132.512V132.617C988.061 132.762 988.172 132.901 988.241 133.046C988.595 133.685 988.932 134.311 989.257 134.915C989.576 135.519 989.808 135.965 989.947 136.25C963.206 150.259 936.498 164.239 909.832 178.173C899.165 183.791 888.458 189.409 877.722 195.026C881.918 203.418 886.827 211.351 892.445 218.814C901.191 230.978 911.898 241.041 924.555 249.003C929.888 252.346 935.738 254.784 942.104 256.31C948.471 257.842 954.709 257.395 960.826 254.975C963.385 252.984 965.875 250.814 968.295 248.469C975.979 238.087 978.428 223.329 975.654 204.196C985.113 204.341 992.971 200.888 999.233 193.848L999.239 193.86ZM949.208 136.465C947.925 134.689 946.614 132.942 945.262 131.236C942.342 127.609 939.214 124.161 935.872 120.888C930.039 115.056 923.603 110.007 916.564 105.742C911.724 102.898 906.501 100.745 900.883 99.2882C895.266 97.8315 889.683 97.8141 884.135 99.2359C879.086 100.872 874.977 103.629 871.814 107.506C868.651 111.382 866.353 115.776 864.931 120.679C861.803 132.414 861.536 144.433 864.13 156.736C866.725 169.039 870.619 180.524 875.813 191.196C884.773 186.501 893.733 181.771 902.694 177.007C920.76 167.263 939 157.769 957.42 148.524C956.92 147.532 956.317 146.464 955.603 145.326H955.499C955.429 145.187 955.354 145.042 955.284 144.897C954.715 143.974 954.146 143.121 953.578 142.338C952.011 140.417 950.554 138.461 949.202 136.47L949.208 136.465Z" fill="white"/>
<path d="M596.053 86.2995C615.854 87.4543 633.426 94.2907 648.765 106.82C663.743 119.709 673.609 135.535 678.362 154.292C683.115 173.048 682.285 191.718 675.878 210.294C674.224 214.902 672.245 219.365 669.935 223.688C660.36 241.4 646.641 254.974 628.784 264.41C611.646 273.052 593.575 276.255 574.563 274.021C566.786 273.011 559.265 270.997 551.988 267.974C546.73 265.745 541.727 263.076 536.974 259.983C532.222 256.814 527.794 253.216 523.691 249.182C510.151 235.574 501.62 219.336 498.092 200.469C494.778 180.593 497.14 161.621 505.166 143.55C513.198 125.478 525.704 111.039 542.702 100.239C559.12 90.2341 576.907 85.5856 596.058 86.3053L596.053 86.2995ZM631.587 100.558V100.448C624.385 97.1343 616.051 97.5522 606.58 101.69C597.115 105.834 587.516 112.978 577.795 123.128C568.075 133.278 559.219 145.738 551.227 160.501C543.666 174.83 538.356 188.694 535.297 202.082C532.239 215.477 531.461 227.252 532.976 237.402C534.491 247.552 538.379 254.934 544.641 259.541C546.3 260.476 547.989 261.375 549.719 262.24C557.066 264.689 565.347 263.679 574.563 259.216C583.779 254.754 593.052 247.534 602.378 237.558C611.704 227.588 620.183 215.506 627.815 201.322C635.591 186.634 640.994 172.468 644.017 158.818C647.041 145.175 647.674 133.254 645.909 123.07C644.145 112.879 639.949 105.665 633.328 101.411H633.217C632.713 101.127 632.173 100.837 631.598 100.547L631.587 100.558Z" fill="white"/>
<path d="M657.419 54.124H520.599V62.6434H657.419V54.124Z" fill="white"/>
</svg>
